<?xml version="1.0" encoding="utf-8"?>
<!-- Generator: Adobe Illustrator 27.3.1, SVG Export Plug-In . SVG Version: 6.00 Build 0)  -->
<svg version="1.1" id="Layer_1" xmlns="http://www.w3.org/2000/svg" xmlns:xlink="http://www.w3.org/1999/xlink" x="0px" y="0px"
	 viewBox="0 0 370 130" style="enable-background:new 0 0 370 130;" xml:space="preserve">
<style type="text/css">
	.st0{fill:#E3AA43;}
	.st1{fill-rule:evenodd;clip-rule:evenodd;fill:#6B2F54;}
</style>
<g>
	<path class="st0" d="M348.2,0H50.1c-11,0-20,9-20,20h12c0-4.4,3.6-8,8-8h298.1c4.4,0,8,3.6,8,8v90c0,4.4-3.6,8-8,8H50.1
		c-4.4,0-8-3.6-8-8h-12c0,11,9,20,20,20h298.1c11,0,20-9,20-20V20C368.2,9,359.3,0,348.2,0z"/>
	<g>
		<path d="M69.8,64.9c0.1,5.9-0.5,11.6-2.5,17.3c-4.1,11.6-11.7,19.3-23.9,22c-8.6,1.8-17.2,0.9-25-3.6c-5.6-3.3-9.6-8-12.4-13.7
			c-3-6.2-4.3-12.8-4.3-19.7c0-5.3,0-10.6,1.3-15.8c3-11.8,9.6-20.5,21.4-24.6c3.5-1.2,7.3-1.6,10.9-1.7c5.8-0.1,11.3,1.1,16.4,3.7
			c6.3,3.3,10.8,8.4,13.9,14.8C69,50.2,69.8,57.4,69.8,64.9L69.8,64.9z M20.7,64.6c0,0.5,0,1.1,0,1.5c0,5.2,0.3,10.3,2.5,15.1
			c1.9,4.5,4.9,7.8,9.8,8.6c5.2,1,9.7-0.3,13.1-4.7c2.6-3.4,3.7-7.4,4.3-11.5c0.7-5.5,0.6-11,0.1-16.5c-0.4-3.9-1.3-7.8-3.3-11.3
			c-4.5-7.9-14.2-7.7-19.1-4.3c-3.3,2.3-4.9,5.7-6,9.4C21,55.5,20.7,60,20.7,64.6L20.7,64.6z"/>
		<path d="M126,26.1h18.7v77.6c-0.4,0-0.9,0.1-1.3,0.1c-5.3,0-10.7,0-16.1,0c-0.9,0-1.4-0.2-1.8-1.1c-8.6-15.2-17.4-30.5-26-45.7
			c-0.2-0.4-0.5-1-0.9-1.4l-0.2,0.1c0,0.4,0,0.9,0,1.3c0,15,0,30.2,0,45.2c0,1.8,0.1,1.6-1.7,1.6c-5.2,0-10.3,0-15.5,0h-1.5
			c0-0.4-0.1-0.9-0.1-1.3c0-25.2,0-50.2,0-75.4c0-1,0.2-1.3,1.2-1.3c5.5,0,11,0,16.5,0c0.9,0,1.2,0.3,1.6,1
			c8.7,15.4,17.5,30.8,26.2,46.2c0.2,0.3,0.4,0.6,0.9,1L126,26.1L126,26.1z"/>
		<path d="M288.3,103.7c-0.5,0-0.9,0.1-1.2,0.1c-6.4,0-12.8,0-19.2,0c-0.9,0-1.2-0.2-1.6-1c-3.9-8-7.9-15.9-11.8-23.9
			c-0.2-0.4-0.4-0.9-0.7-1.5c-0.2,0.4-0.4,0.7-0.6,1.2c-3.9,8-8,16.1-11.9,24.1c-0.4,0.9-0.9,1.2-1.8,1.2c-6.3,0-12.6,0-18.8,0
			c-0.4,0-0.7,0-1.3,0c0.2-0.5,0.4-0.9,0.5-1.2c7-12.4,14-24.6,21-37c0.5-0.9,0.4-1.5,0-2.2c-6.8-12.1-13.7-24.2-20.5-36.3
			c-0.2-0.3-0.3-0.6-0.5-1.1c0.4,0,0.7-0.1,1.1-0.1c6.4,0,12.8,0,19.1,0c0.7,0,1.2,0.2,1.5,1c3.8,7.9,7.8,15.9,11.6,23.8
			c0.2,0.3,0.3,0.7,0.6,1.2c0.2-0.5,0.5-0.9,0.6-1.3c3.8-7.9,7.8-15.7,11.6-23.6c0.4-0.7,0.9-1.1,1.7-1.1c6.3,0,12.6,0,18.9,0
			c0.3,0,0.6,0,1.2,0c-0.2,0.4-0.2,0.6-0.4,1c-6.8,12.2-13.7,24.2-20.6,36.4c-0.5,1-0.5,1.6,0,2.5c7,12.3,14,24.5,21,36.9
			C288,103,288.2,103.3,288.3,103.7L288.3,103.7z"/>
		<path d="M149.1,26.1h1.4c5.9,0,11.6,0,17.5,0c0.9,0,1.3,0.2,1.6,1.1c4.4,10.3,8.9,20.8,13.2,31.1c0.2,0.4,0.4,1,0.7,1.7
			c0.3-0.6,0.5-1.1,0.6-1.5c4.4-10.3,8.7-20.7,13.1-31c0.4-1.1,1-1.3,2-1.3c5.8,0.1,11.5,0,17.3,0h1.4c-0.2,0.5-0.4,0.9-0.5,1.3
			c-8,15.9-16,31.8-24,47.7c-0.3,0.6-0.5,1.5-0.5,2.2c0,8.4,0,16.8,0,25.3v1.4H174v-1.4c0-8.4,0-16.8,0-25.3c0-0.7-0.2-1.6-0.5-2.3
			c-7.9-15.8-15.8-31.6-23.8-47.3C149.7,27.1,149.6,26.7,149.1,26.1L149.1,26.1z"/>
	</g>
	<path class="st1" d="M301.5,25c-3.7,0-6.8,3-6.8,6.8v35.8c0,3.7,3,6.8,6.8,6.8h36.8c3.7,0,6.8-3,6.8-6.8V31.8c0-3.7-3-6.8-6.8-6.8
		H301.5z M309.8,51.9V36.7h-4.9v15.2c-0.1,1.9,0.4,3.7,1.3,5.3c0.8,1.4,2.1,2.5,3.5,3.3c1.6,0.7,3.3,1.1,5,1.1s3.5-0.3,5.1-1.1
		c1.5-0.7,2.7-1.8,3.6-3.3c1-1.6,1.4-3.5,1.4-5.3V36.7h-5v15.2c0,1.7-0.4,3-1.3,3.8c-0.9,0.9-2.1,1.3-3.7,1.3
		c-1.4,0.1-2.7-0.4-3.7-1.3C310.3,54.9,309.8,53.6,309.8,51.9L309.8,51.9z M334.5,61.3V36.7h-4.9v24.6
		C329.6,61.3,334.5,61.3,334.5,61.3z"/>
</g>
</svg>
