<?xml version="1.0" encoding="utf-8"?>
<!-- Generator: Adobe Illustrator 27.3.1, SVG Export Plug-In . SVG Version: 6.00 Build 0)  -->
<svg version="1.1" id="Layer_1" xmlns="http://www.w3.org/2000/svg" xmlns:xlink="http://www.w3.org/1999/xlink" x="0px" y="0px"
	 viewBox="0 0 475 160" style="enable-background:new 0 0 475 160;" xml:space="preserve">
<style type="text/css">
	.st0{opacity:0.6;fill:#633252;}
	.st1{fill:#633252;}
</style>
<path class="st0" d="M452.7,21.9V16c0-8.8-7.2-16-16-16H16.4c-8.8,0-16,7.2-16,16v106.1c0,8.8,7.2,16,16,16h5.9V21.9H452.7z"/>
<path class="st0" d="M458.6,21.9h-5.9v116.3H22.3v5.9c0,8.8,7.2,16,16,16h420.3c8.8,0,16-7.2,16-16V37.9
	C474.6,29,467.4,21.9,458.6,21.9z"/>
<path class="st1" d="M246.7,71.1c-10.2,0-18.5,8.9-18.5,19.7c0,10.8,8.3,19.5,18.5,19.5c10.3,0,18.6-8.7,18.6-19.5
	C265.3,80,257,71.1,246.7,71.1z"/>
<path class="st1" d="M22.3,21.9v116.3h430.5V21.9H22.3z M103.5,118.7H93.2l-12.7-39l-12.7,39H57.5l-20.3-56h11.3l14.6,41.5
	l12.8-39.8h9.2l12.8,39.8l14.6-41.5h11.3L103.5,118.7z M146.4,118.7h-10.9v-56h10.9V118.7z M140.9,52.2c-4.3,0-7.5-3.3-7.5-7.5
	c0-4.3,3.3-7.6,7.5-7.6c4.3,0,7.6,3.4,7.6,7.6C148.5,48.9,145.2,52.2,140.9,52.2z M175.2,118.7h-10.9v-81h10.9V118.7z M204,118.7
	h-10.9v-81H204V118.7z M246.7,120c-16.1,0-29.4-13-29.4-29.3c0-16.1,13.2-29.3,29.4-29.3c16.3,0,29.5,13.2,29.5,29.3
	C276.2,106.9,263,120,246.7,120z M347.7,118.7h-10.3l-12.7-39l-12.7,39h-10.3l-20.3-56h11.3l14.6,41.5l12.8-39.8h9.2l12.8,39.8
	l14.6-41.5H368L347.7,118.7z M434,79.4c0,3.8-3.1,6.8-6.8,6.8h-36.6c-3.8,0-6.8-3.1-6.8-6.8V43.8c0-3.8,3.1-6.8,6.8-6.8h36.6
	c3.8,0,6.8,3.1,6.8,6.8V79.4z"/>
<rect x="418.6" y="48.7" class="st1" width="4.9" height="24.4"/>
<path class="st1" d="M408.8,63.8c0,1.7-0.4,3-1.3,3.8c-0.9,0.9-2.1,1.3-3.7,1.3c-1.4,0.1-2.7-0.4-3.7-1.3c-0.8-0.8-1.3-2.1-1.3-3.8
	V48.7H394v15.1c-0.1,1.9,0.4,3.7,1.3,5.3c0.8,1.4,2.1,2.5,3.5,3.3c1.6,0.7,3.3,1.1,5,1.1c1.7,0,3.5-0.3,5.1-1.1
	c1.5-0.7,2.7-1.8,3.6-3.3c1-1.6,1.4-3.5,1.4-5.3V48.7h-5V63.8z"/>
</svg>
