<svg width="16" height="16" viewBox="0 0 16 16" fill="none" xmlns="http://www.w3.org/2000/svg">
<path d="M2.31095 9.66977C2.31675 9.53296 2.54124 9.47851 2.60788 9.59788C2.92049 10.1582 3.45389 10.9823 4.05899 11.357C4.66421 11.7317 5.6335 11.838 6.26983 11.8653C6.40546 11.8711 6.45927 12.0978 6.34104 12.1651C5.78604 12.4807 4.96991 13.0192 4.5988 13.6301C4.22769 14.2412 4.1223 15.2198 4.09539 15.8624C4.08959 15.9992 3.86498 16.0535 3.79834 15.9342C3.48573 15.3738 2.95245 14.5498 2.34723 14.1751C1.74209 13.8005 0.772801 13.6942 0.136379 13.6669C0.000808258 13.661 -0.0530252 13.4343 0.0651933 13.3671C0.620187 13.0514 1.43639 12.513 1.80752 11.9019C2.17865 11.291 2.28392 10.3123 2.31095 9.66977Z" fill="#6038E8"/>
<path d="M4.86978 0.224416C4.87923 0.00143906 5.24511 -0.0873034 5.35372 0.107243C5.86321 1.02048 6.73253 2.36362 7.71872 2.97427C8.7051 3.58492 10.2849 3.75814 11.3219 3.80261C11.543 3.81216 11.6307 4.18156 11.438 4.29122C10.5335 4.80561 9.20332 5.6833 8.5985 6.67898C7.99367 7.67486 7.8219 9.26982 7.77805 10.3171C7.7686 10.5401 7.40253 10.6286 7.29391 10.4341C6.78442 9.52082 5.9153 8.17788 4.92892 7.56723C3.94267 6.95658 2.36292 6.78336 1.32569 6.73889C1.10474 6.72934 1.017 6.35974 1.20967 6.25029C2.11419 5.73569 3.44443 4.8582 4.04929 3.86232C4.65416 2.86664 4.82573 1.27168 4.86978 0.224416Z" fill="#6038E8"/>
<path d="M13.8071 6.79069C13.7903 6.56563 13.4095 6.47118 13.296 6.66399C12.9541 7.24408 12.4611 7.94409 11.9132 8.29194C11.3652 8.63979 10.5385 8.77695 9.88394 8.82932C9.66647 8.84677 9.5752 9.24061 9.76151 9.35828C10.3221 9.71208 10.9985 10.2221 11.3346 10.7893C11.6707 11.3565 11.8033 12.2119 11.8539 12.8893C11.8707 13.1144 12.2513 13.2088 12.365 13.016C12.7069 12.4359 13.1998 11.7359 13.7478 11.3881C14.2959 11.0402 15.1223 10.9031 15.7771 10.8507C15.9946 10.8332 16.0858 10.4394 15.8995 10.3217C15.339 9.96793 14.6624 9.45766 14.3264 8.89071C13.9903 8.32356 13.8575 7.46811 13.8071 6.79069Z" fill="#6038E8"/>
</svg>
